<?xml version="1.0" encoding="UTF-8"?>
<svg width="8px" height="13px" viewBox="0 0 8 13" version="1.1" xmlns="http://www.w3.org/2000/svg" xmlns:xlink="http://www.w3.org/1999/xlink">
    <!-- Generator: Sketch 52.6 (67491) - http://www.bohemiancoding.com/sketch -->
    <title>Pagination / _part / _Chevron Neutral</title>
    <desc>Created with Sketch.</desc>
    <defs>
        <path d="M9.90552778,12.0944722 L14.9577103,7.04228968 C15.3829696,6.61703042 16.0724511,6.61703042 16.4977103,7.04228968 C16.9229696,7.46754894 16.9229696,8.15703042 16.4977103,8.58228968 L12.2077103,12.8722897 L16.4977103,17.1622897 C16.9229696,17.5875489 16.9229696,18.2770304 16.4977103,18.7022897 C16.0724511,19.1275489 15.3829696,19.1275489 14.9577103,18.7022897 L9.90552778,13.6501071 C9.47595106,13.2205304 9.47595106,12.5240489 9.90552778,12.0944722 Z" id="path-1"></path>
    </defs>
    <g id="Page-1" stroke="none" stroke-width="1" fill="none" fill-rule="evenodd">
        <g id="Users" transform="translate(-1146.000000, -781.000000)">
            <g id="Group-12" transform="translate(234.000000, 280.000000)">
                <g id="Group-6" transform="translate(687.000000, 495.000000)">
                    <g id="Pagination-/-_part-/-_Chevron-Neutral" transform="translate(228.800000, 13.200000) scale(-1, 1) translate(-228.800000, -13.200000) translate(215.600000, 0.000000)">
                        <g id="standard/action/chevron-left">
                            <mask id="mask-2" fill="white">
                                <use xlink:href="#path-1"></use>
                            </mask>
                            <use id="Shape" fill="#FFFFFF" fill-rule="evenodd" xlink:href="#path-1"></use>
                            <g id="Neutral-/-N500" mask="url(#mask-2)" fill="#42526E" fill-rule="evenodd">
                                <polygon id="N500" points="0 26 26 26 26 0 0 0"></polygon>
                            </g>
                        </g>
                    </g>
                </g>
            </g>
        </g>
    </g>
</svg>