<svg xmlns="http://www.w3.org/2000/svg" width="13" height="12" viewBox="0 0 13 12">
    <path fill="#FFF" fill-rule="evenodd" d="M12.054 8.94h.56v.558h-.56V8.94h-1.117V8.38h1.117v.559zm0-1.677v.56h-.558v-.56h.558v-.558h.56v.559h-.56zm-3.91 0v1.118h-.56V7.263h1.118v-.558h-.558v-.559h-.56v.559h.56v.559zm2.234-2.234h.56v.558h.558v1.676h-.559v-.558H9.82v.558H9.26V6.146h1.117V5.03H9.82v-.56h.558v.56zm-8.38 0v.558h.558v.56h-.559v.558H1.44V5.587H.88V5.03h1.117v-.56h1.118v.56H1.997zM7.025 0h1.117v.559h-.558v.558H6.467v1.677H5.35v-.56h.559V.56h1.117V0zM.88 0h3.911v3.911H.88V0zm3.352 3.352V.56H1.44v2.793h2.793zM8.702 0h3.911v3.911h-3.91V0zm3.352 3.352V.56H9.262v2.793h2.793zM1.997 1.117h1.677v1.677H1.997V1.117zm7.823 0h1.676v1.677H9.82V1.117zm-2.794.56h.559v.558h-.559v-.559zm.559.558h.558V4.47h-.558V3.352h-.559v.56h-.559V2.793h1.118v-.56zM5.35 3.352h.559v.56h.558v.558H5.91v1.117h.558V5.03h.56v-.56h.558v1.677H6.467v.559H5.91v-.559h-.56V5.03H4.233v-.56H5.35V3.353zM8.143 4.47h1.118v.559h-.559v.558h-.559V4.47zm-5.028.559h1.117v.558h-.558v.56h.558v.558H3.115V5.029zm1.117.558h.559v.56h-.559v-.56zm7.822 0h.56v.56h-.56v-.56zm-7.263.56h.559v1.116H4.232v-.558h.56v-.559zM.88 6.704h.559v.559H.88v-.56zm1.117 0h.56v.559h-.56v-.56zm4.47 0h1.118v.558h-.559v1.118h-.559v1.117H5.91V8.381h-.56V7.263h.56v.56h.558V6.704zm3.911.558h.56v1.118h-.56V7.263zm-1.117.56h.559v.558h.558v1.117h1.676v.56H9.82v1.116H9.26v-1.117h-.559v.559h-.559v.558h.56v.56H5.908v-.56h1.676v-1.117h.558V8.381h1.118v-.559zm-8.381 0h3.911v3.91H.88v-3.91zm3.352 3.351V8.381H1.44v2.793h2.793zm2.794-2.793h.559v.559h-.559V8.38zm-5.029.559h1.677v1.676H1.997V8.94zm3.353.558h.559v.56h.558v.558H5.35V9.498zm1.117 0h1.118v.56H6.467v-.56zm4.47 1.118h.559v.559h-.559v-.559zm1.117 0h.56v.559h-.56v-.559zm-2.234.558h.558v.56H9.82v-.56z"/>
</svg>
