<svg xmlns="http://www.w3.org/2000/svg" width="15" height="15" viewBox="0 0 15 15">
    <g fill="#9FB4CE" fill-rule="nonzero" opacity=".507">
        <path d="M7.518 2A2.498 2.498 0 0 1 10 4.5C10 5.857 8.865 7 7.518 7 6.135 7 5 5.857 5 4.5 5 3.107 6.135 2 7.518 2z"/>
        <path d="M7.518 0C11.626 0 15 3.374 15 7.518 15 11.626 11.626 15 7.518 15 3.374 15 0 11.626 0 7.518 0 3.374 3.374 0 7.518 0zm0 7.922c2.494 0 4.548 1.944 4.768 4.4 1.247-1.246 2.017-2.933 2.017-4.804 0-3.777-3.044-6.821-6.785-6.821A6.809 6.809 0 0 0 .697 7.518c0 1.87.77 3.558 2.017 4.805.22-2.457 2.274-4.401 4.804-4.401zm4.071 4.988c.11-2.348-1.723-4.291-4.07-4.291a4.076 4.076 0 0 0-4.108 4.29 6.69 6.69 0 0 0 4.107 1.394 6.664 6.664 0 0 0 4.071-1.393z"/>
    </g>
</svg>
