<?xml version="1.0" encoding="UTF-8"?>
<svg width="24px" height="22px" viewBox="0 0 24 22" version="1.1" xmlns="http://www.w3.org/2000/svg" xmlns:xlink="http://www.w3.org/1999/xlink">
    <!-- Generator: Sketch 52.6 (67491) - http://www.bohemiancoding.com/sketch -->
    <title>Group 3</title>
    <desc>Created with Sketch.</desc>
    <g id="Page-1" stroke="none" stroke-width="1" fill="none" fill-rule="evenodd">
        <g id="Hover-_new" transform="translate(-19.000000, -1025.000000)" fill="#6D7381" fill-rule="nonzero">
            <g id="Group-103-Copy-2">
                <g id="Rectangle">
                    <g id="Group-103" transform="translate(-7.000000, 155.000000)">
                        <g id="Group-102">
                            <g id="Group-4" transform="translate(5.000000, 819.000000)">
                                <g id="Group-14">
                                    <g id="Group-28" transform="translate(21.000000, 51.000000)">
                                        <g id="Group-3">
                                            <path d="M22.1736816,15.1899605 C20.5258603,19.1867826 16.5913642,22 11.999806,22 C5.94669909,22 1.03553126,17.1107777 1,11.0660305 L2.24128503,11.6186862 C2.56046336,16.7305559 6.80749501,20.7777778 11.999806,20.7777778 C16.0934033,20.7777778 19.599445,18.262153 21.0563446,14.6924899 L22.1736816,15.1899605 Z M22.9868631,11.5383429 L21.7775838,10.999937 C21.7775497,5.59984843 17.3999025,1.22222222 11.999806,1.22222222 C7.70911345,1.22222222 4.06391692,3.98591912 2.74724433,7.83028495 L1.62645397,7.33127694 C3.13710127,3.05997912 7.21110541,0 11.999806,0 C18.0749382,0 22.999806,4.92486775 22.999806,11 C22.999806,11.180496 22.9954587,11.3599766 22.9868631,11.5383429 Z" id="Combined-Shape"></path>
                                            <circle id="Oval" cx="22" cy="11" r="2"></circle>
                                            <circle id="Oval-Copy-65" opacity="0.5" cx="12" cy="11" r="4"></circle>
                                            <circle id="Oval-Copy-64" cx="2" cy="11" r="2"></circle>
                                        </g>
                                    </g>
                                </g>
                            </g>
                        </g>
                    </g>
                </g>
            </g>
        </g>
    </g>
</svg>