<?xml version="1.0" encoding="UTF-8"?>
<svg width="19px" height="17px" viewBox="0 0 19 17" version="1.1" xmlns="http://www.w3.org/2000/svg" xmlns:xlink="http://www.w3.org/1999/xlink">
    <!-- Generator: Sketch 52.6 (67491) - http://www.bohemiancoding.com/sketch -->
    <title>Group 3</title>
    <desc>Created with Sketch.</desc>
    <g id="Page-1" stroke="none" stroke-width="1" fill="none" fill-rule="evenodd">
        <g id="Hover_new+refreshaccount" transform="translate(-20.000000, -1028.000000)" fill="#0364FF" fill-rule="nonzero">
            <g id="Group-103-Copy-2">
                <g id="Rectangle">
                    <g id="Group-103" transform="translate(-7.000000, 155.000000)">
                        <g id="Group-102">
                            <g id="Group-4" transform="translate(5.000000, 820.000000)">
                                <g id="Group-14">
                                    <g id="Group-28" transform="translate(22.000000, 53.000000)">
                                        <g id="Group-3">
                                            <path d="M17.1342085,11.7376967 C15.8608921,14.8261502 12.8205996,17 9.27257735,17 C4.59517657,17 0.800183246,13.2219646 0.772727273,8.5510236 L1.73190207,8.97807573 C1.97853987,12.9281569 5.26033706,16.0555556 9.27257735,16.0555556 C12.4358116,16.0555556 15.1450256,14.1116637 16.2708117,11.3532877 L17.1342085,11.7376967 Z M17.762576,8.91599225 L16.8281329,8.49995136 C16.8281066,4.3271556 13.4453792,0.944444444 9.27257735,0.944444444 C5.95704221,0.944444444 3.14029944,3.08002841 2.12287062,6.05067474 L1.25680534,5.66507763 C2.42412371,2.36452932 5.57221782,0 9.27257735,0 C13.9669977,0 17.7725773,3.80557963 17.7725773,8.5 C17.7725773,8.63947418 17.7692181,8.77816376 17.762576,8.91599225 Z" id="Combined-Shape"></path>
                                            <circle id="Oval" cx="17" cy="8.5" r="1.54545455"></circle>
                                            <circle id="Oval-Copy-65" opacity="0.5" cx="9.27272727" cy="8.5" r="3.09090909"></circle>
                                            <circle id="Oval-Copy-64" cx="1.54545455" cy="8.5" r="1.54545455"></circle>
                                        </g>
                                    </g>
                                </g>
                            </g>
                        </g>
                    </g>
                </g>
            </g>
        </g>
    </g>
</svg>