<?xml version="1.0" encoding="UTF-8"?>
<svg width="22px" height="21px" viewBox="0 0 22 21" version="1.1" xmlns="http://www.w3.org/2000/svg" xmlns:xlink="http://www.w3.org/1999/xlink">
    <!-- Generator: Sketch 52.6 (67491) - http://www.bohemiancoding.com/sketch -->
    <title>noun_send_1322966</title>
    <desc>Created with Sketch.</desc>
    <g id="Page-1" stroke="none" stroke-width="1" fill="none" fill-rule="evenodd">
        <g id="Send-money-Copy-3" transform="translate(-771.000000, -863.000000)" fill="#FFFFFF" fill-rule="nonzero">
            <g id="Group-35-Copy-3" transform="translate(380.000000, 71.000000)">
                <g id="Group-35-Copy">
                    <g id="noun_qr_1474709-copy-2">
                        <g id="Group-58" transform="translate(2.000000, 88.000000)">
                            <g id="Group-27-Copy-3" transform="translate(369.000000, 689.000000)">
                                <g id="Group-33">
                                    <g id="Group-26">
                                        <g id="Group-31" transform="translate(20.000000, 15.000000)">
                                            <g id="noun_send_1322966">
                                                <g id="Group">
                                                    <g id="Shape">
                                                        <path d="M10.5660377,21 C4.73057623,21 0,16.2989899 0,10.5 C0,4.70101012 4.73057623,0 10.5660377,0 C16.4014992,0 21.1320755,4.70101012 21.1320755,10.5 C21.1320755,16.2989899 16.4014992,21 10.5660377,21 Z M11.1710658,5.15638686 C10.8299209,4.81303974 10.2769413,4.81441992 9.93416526,5.16127689 L5.85392186,9.29009763 C5.19099777,9.95025188 6.18503242,10.9401332 6.84795651,10.279979 L9.61635607,7.52078796 C9.7526277,7.38496959 9.8630977,7.43265488 9.8630977,7.62526331 L9.8630977,15.2377969 C9.8630977,15.6253492 10.1751324,15.9395225 10.5660925,15.9395225 C10.9543458,15.9395225 11.2690873,15.6260239 11.2690873,15.2377969 L11.2690873,7.62526331 C11.2690873,7.43174481 11.3799736,7.38538454 11.5158289,7.52078796 L14.2842285,10.279979 C14.9468011,10.9401332 15.9411872,9.95025188 15.2782631,9.29009763 L11.1710658,5.15638686 Z"></path>
                                                    </g>
                                                </g>
                                            </g>
                                        </g>
                                    </g>
                                </g>
                            </g>
                        </g>
                    </g>
                </g>
            </g>
        </g>
    </g>
</svg>