<svg xmlns="http://www.w3.org/2000/svg" xmlns:xlink="http://www.w3.org/1999/xlink" width="194" height="172" viewBox="0 0 194 172">
    <defs>
        <linearGradient id="a" x1="-24.134%" x2="75.866%" y1="49.933%" y2="49.933%">
            <stop offset="0%" stop-color="#B7DEFF"/>
            <stop offset="100%" stop-color="#F8FBFD"/>
        </linearGradient>
        <linearGradient id="b" x1="-40.706%" x2="59.294%" y1="50%" y2="50%">
            <stop offset="0%" stop-color="#B7DEFF"/>
            <stop offset="100%" stop-color="#FFF"/>
        </linearGradient>
        <rect id="d" width="51.976" height="5.418" rx="2.709"/>
        <filter id="c" width="107.7%" height="173.8%" x="-3.8%" y="-18.5%" filterUnits="objectBoundingBox">
            <feOffset dy="1" in="SourceAlpha" result="shadowOffsetOuter1"/>
            <feGaussianBlur in="shadowOffsetOuter1" result="shadowBlurOuter1" stdDeviation=".5"/>
            <feColorMatrix in="shadowBlurOuter1" values="0 0 0 0 0.925490196 0 0 0 0 0.949019608 0 0 0 0 0.976470588 0 0 0 1 0"/>
        </filter>
        <rect id="f" width="31.186" height="5.418" y="8.428" rx="2.709"/>
        <filter id="e" width="112.8%" height="173.8%" x="-6.4%" y="-18.5%" filterUnits="objectBoundingBox">
            <feOffset dy="1" in="SourceAlpha" result="shadowOffsetOuter1"/>
            <feGaussianBlur in="shadowOffsetOuter1" result="shadowBlurOuter1" stdDeviation=".5"/>
            <feColorMatrix in="shadowBlurOuter1" values="0 0 0 0 0.925490196 0 0 0 0 0.949019608 0 0 0 0 0.976470588 0 0 0 1 0"/>
        </filter>
        <rect id="h" width="52.822" height="5.418" y="16.616" rx="2.709"/>
        <filter id="g" width="107.6%" height="173.8%" x="-3.8%" y="-18.5%" filterUnits="objectBoundingBox">
            <feOffset dy="1" in="SourceAlpha" result="shadowOffsetOuter1"/>
            <feGaussianBlur in="shadowOffsetOuter1" result="shadowBlurOuter1" stdDeviation=".5"/>
            <feColorMatrix in="shadowBlurOuter1" values="0 0 0 0 0.925490196 0 0 0 0 0.949019608 0 0 0 0 0.976470588 0 0 0 1 0"/>
        </filter>
        <linearGradient id="i" x1="-28.675%" x2="71.306%" y1="50%" y2="50%">
            <stop offset="0%" stop-color="#B7DEFF"/>
            <stop offset="100%" stop-color="#FFF"/>
        </linearGradient>
        <linearGradient id="j" x1="-.025%" x2="99.945%" y1="49.895%" y2="49.895%">
            <stop offset="0%" stop-color="#DFEBF8"/>
            <stop offset="100%" stop-color="#EFF9FE"/>
        </linearGradient>
        <linearGradient id="k" x1="78.226%" x2="57.784%" y1="24.929%" y2="96.141%">
            <stop offset="0%" stop-color="#9ABFFF"/>
            <stop offset="100%" stop-color="#5B87D2"/>
        </linearGradient>
        <linearGradient id="l" x1=".009%" y1="50.01%" y2="50.01%">
            <stop offset="0%" stop-color="#DFEBF8"/>
            <stop offset="100%" stop-color="#EFF9FE"/>
        </linearGradient>
        <linearGradient id="m" x1="50%" x2="50%" y1="16.376%" y2="76.56%">
            <stop offset="0%" stop-color="#6081C1"/>
            <stop offset="100%" stop-color="#90AADB"/>
        </linearGradient>
        <linearGradient id="n" x1="103.953%" x2="30.985%" y1="0%" y2="33.206%">
            <stop offset="0%" stop-color="#002383"/>
            <stop offset="100%" stop-color="#316EEA"/>
        </linearGradient>
        <path id="o" d="M75.07 105.807c-1.81.946-6.79 6.692-11.287 12.406-9.105 11.54-34.785 42.052-34.785 42.052l12.224 7.077 41.75-41.084 39.783 3.373 18.899-11.735s-7.077-.951-9.427-2.02c-2.35-1.068-4.586-3.336-4.165-3.02l-10.088-.271-32.848-6.24s-7.004-.941-12.08-.402"/>
        <filter id="p" width="106.2%" height="111.4%" x="-3.1%" y="-5.7%" filterUnits="objectBoundingBox">
            <feGaussianBlur in="SourceAlpha" result="shadowBlurInner1" stdDeviation="2.5"/>
            <feOffset dx="2" dy="1" in="shadowBlurInner1" result="shadowOffsetInner1"/>
            <feComposite in="shadowOffsetInner1" in2="SourceAlpha" k2="-1" k3="1" operator="arithmetic" result="shadowInnerInner1"/>
            <feColorMatrix in="shadowInnerInner1" values="0 0 0 0 0.103708091 0 0 0 0 0.317384548 0 0 0 0 0.809603529 0 0 0 1 0"/>
        </filter>
        <linearGradient id="q" x1="0%" x2="62.389%" y1="100%" y2="0%">
            <stop offset="0%" stop-color="#6B86C0"/>
            <stop offset="100%" stop-color="#A1B8E3"/>
        </linearGradient>
        <linearGradient id="r" x1="87.568%" x2="57.908%" y1="16.269%" y2="80.014%">
            <stop offset="0%" stop-color="#F5F8FF"/>
            <stop offset="100%" stop-color="#FFF"/>
        </linearGradient>
        <path id="s" d="M140.227 70.478s-2.562 3.812-.37 5.33c3.069 2.118 11.377.696 12.445-5.167 0 0 6.004.566 11.002 3.432 2.943 1.689 4.401 2.87 4.401 7.919 0 8.263-1.81 16.865-3.513 23.783-2.051 8.268-4.075 14.126-4.075 14.126s-18.69 2.11-33.658-2.59c.905-3.386 4.808-11.318 5.56-14.198 3.866-14.742 2.644-17.658 2.644-17.658l-5.718 5.778-6.443-5.135s3.323-3.658 6.669-8.2c1.286-1.742 4.306-6.338 6.434-6.954 1.086-.321 2.177-.19 4.622-.466z"/>
        <filter id="t" width="106.6%" height="106%" x="-3.3%" y="-3%" filterUnits="objectBoundingBox">
            <feGaussianBlur in="SourceAlpha" result="shadowBlurInner1" stdDeviation="1"/>
            <feOffset dy="1" in="shadowBlurInner1" result="shadowOffsetInner1"/>
            <feComposite in="shadowOffsetInner1" in2="SourceAlpha" k2="-1" k3="1" operator="arithmetic" result="shadowInnerInner1"/>
            <feColorMatrix in="shadowInnerInner1" values="0 0 0 0 0.898039216 0 0 0 0 0.941176471 0 0 0 0 1 0 0 0 1 0"/>
        </filter>
        <linearGradient id="u" x1="50%" x2="75.539%" y1="100%" y2="0%">
            <stop offset="0%" stop-color="#EEF5FF"/>
            <stop offset="100%" stop-color="#D9E8FF"/>
        </linearGradient>
        <path id="v" d="M163.295 74.073c2.115 1.06 5.148 3.858 2.636 8.258-2.577 4.528-14.91 13.484-14.91 13.484l-7.398-6.47 12.641-12.958c1.358-1.395 5.288-3.188 7.031-2.314z"/>
        <filter id="w" width="112.9%" height="113.7%" x="-6.4%" y="-6.8%" filterUnits="objectBoundingBox">
            <feGaussianBlur in="SourceAlpha" result="shadowBlurInner1" stdDeviation="1"/>
            <feOffset dy="1" in="shadowBlurInner1" result="shadowOffsetInner1"/>
            <feComposite in="shadowOffsetInner1" in2="SourceAlpha" k2="-1" k3="1" operator="arithmetic" result="shadowInnerInner1"/>
            <feColorMatrix in="shadowInnerInner1" values="0 0 0 0 0.898039216 0 0 0 0 0.941176471 0 0 0 0 1 0 0 0 1 0"/>
        </filter>
        <linearGradient id="x" x1="121.687%" x2="50%" y1="39.429%" y2="77.132%">
            <stop offset="0%" stop-color="#FFF"/>
            <stop offset="70.11%" stop-color="#B8CBEB"/>
            <stop offset="100%" stop-color="#A1B8E3"/>
        </linearGradient>
        <linearGradient id="y" x1="110.009%" x2="13.9%" y1="19.184%" y2="50%">
            <stop offset="0%" stop-color="#2669E1"/>
            <stop offset="100%" stop-color="#143B8C"/>
        </linearGradient>
        <path id="z" d="M150.976 52.26c.58-7.698-4.455-12.547-7.15-12.284-4.758-5.058-13.795-2.87-17.72 1.81-4.637 5.52-4.582 3.7-8.693 3.967-3.432.222-5.08 3.622-3.65 6.624 3.138 6.587 12.728 4.582 17.079 1.856 2.585-1.62 6.728-5.388 8.249-7.09.937 6.52 1.227 10.305 6.434 13.877a30.887 30.887 0 0 1 3.508 2.97c1.241-3.55 1.409-4.668 1.943-11.73z"/>
        <filter id="A" width="110.6%" height="114.9%" x="-5.3%" y="-7.4%" filterUnits="objectBoundingBox">
            <feGaussianBlur in="SourceAlpha" result="shadowBlurInner1" stdDeviation="1"/>
            <feOffset dx="2" dy="2" in="shadowBlurInner1" result="shadowOffsetInner1"/>
            <feComposite in="shadowOffsetInner1" in2="SourceAlpha" k2="-1" k3="1" operator="arithmetic" result="shadowInnerInner1"/>
            <feColorMatrix in="shadowInnerInner1" values="0 0 0 0 0 0 0 0 0 0 0 0 0 0 0 0 0 0 0.13988904 0"/>
        </filter>
        <linearGradient id="B" x1="43.749%" x2="60.822%" y1="5.419%" y2="43.936%">
            <stop offset="0%" stop-color="#3D9BF8"/>
            <stop offset="100%" stop-color="#3B80F0"/>
        </linearGradient>
        <linearGradient id="C" x1="-15.727%" x2="93.729%" y1="44.819%" y2="60.198%">
            <stop offset="0%" stop-color="#A3B4DD"/>
            <stop offset="100%" stop-color="#E4EDF8"/>
        </linearGradient>
        <linearGradient id="D" x1="-5713.407%" x2="-5612.329%" y1="-1955.123%" y2="-1955.123%">
            <stop offset="0%" stop-color="#A3B4DD"/>
            <stop offset="100%" stop-color="#E4EDF8"/>
        </linearGradient>
        <linearGradient id="E" x1="69.682%" x2="-34.188%" y1="16.427%" y2="123.275%">
            <stop offset="0%" stop-color="#FFF"/>
            <stop offset="100%" stop-color="#FFF"/>
        </linearGradient>
        <linearGradient id="F" x1="58.508%" x2="-15.596%" y1="16.151%" y2="113.402%">
            <stop offset="0%" stop-color="#FFF"/>
            <stop offset="100%" stop-color="#FFF"/>
        </linearGradient>
        <linearGradient id="G" x1="0%" x2="99.632%" y1="50.078%" y2="50.078%">
            <stop offset="0%" stop-color="#A3B4DD"/>
            <stop offset="100%" stop-color="#E4EDF8"/>
        </linearGradient>
        <linearGradient id="H" x1=".02%" x2="99.83%" y1="50.019%" y2="50.019%">
            <stop offset="0%" stop-color="#A3B4DD"/>
            <stop offset="100%" stop-color="#E4EDF8"/>
        </linearGradient>
        <linearGradient id="I" x1="-.041%" x2="99.991%" y1="49.819%" y2="49.819%">
            <stop offset="0%" stop-color="#D9E3F4"/>
            <stop offset="100%" stop-color="#BED5EA"/>
        </linearGradient>
        <linearGradient id="J" x1=".001%" x2="100.116%" y1="49.816%" y2="49.816%">
            <stop offset="0%" stop-color="#D9E3F4"/>
            <stop offset="100%" stop-color="#BED5EA"/>
        </linearGradient>
    </defs>
    <g fill="none" fill-rule="evenodd">
        <g transform="translate(1.63 -13)">
            <path fill="url(#a)" fill-rule="nonzero" d="M4.553 182.984c0-.937 24.707-1.697 55.183-1.697 30.475 0 55.182.76 55.182 1.697 0 .938-24.707 1.703-55.182 1.703-30.476 0-55.183-.76-55.183-1.703z"/>
            <ellipse cx="162.173" cy="163.353" fill="url(#b)" fill-rule="nonzero" rx="65.107" ry="4.048"/>
            <g fill-rule="nonzero">
                <g transform="translate(0 87.986)">
                    <use fill="#000" filter="url(#c)" xlink:href="#d"/>
                    <use fill="#FFF" xlink:href="#d"/>
                </g>
                <g transform="translate(0 87.986)">
                    <use fill="#000" filter="url(#e)" xlink:href="#f"/>
                    <use fill="#FFF" xlink:href="#f"/>
                </g>
                <g transform="translate(0 87.986)">
                    <use fill="#000" filter="url(#g)" xlink:href="#h"/>
                    <use fill="#FFF" xlink:href="#h"/>
                </g>
            </g>
            <ellipse cx="159.791" cy="165.277" fill="url(#i)" fill-rule="nonzero" rx="12.134" ry="1"/>
            <path fill="url(#j)" fill-rule="nonzero" d="M24.384 165.128l5.886-5.886 10.146 3.622s-4.83 5.759-5.98 7.842c-1.15 2.082-3.754 2.05-6.706.267-2.952-1.784-4.482-3.631-3.346-5.845z"/>
            <path fill="url(#k)" d="M35.364 169.239s-1.938 2.78-4.632 1.86c-2.323-.796-7.453-3.862-6.339-5.971l-16.349-5.664a2.662 2.662 0 0 0-3.02 1.09 1.856 1.856 0 0 0-.122 2.188c1.019 1.616 17.431 10.757 24.055 14.126a3.35 3.35 0 0 0 4.482-1.72c.643-1.509 1.925-5.91 1.925-5.91z"/>
            <path fill="#295CCF" fill-rule="nonzero" d="M140.205 78.732l4.876-6.293s10.02-2.581 24.67 1.87c32.536 9.874 21.249 65.124 4.076 79.685-9.671 8.195-24.359 12.71-50.682 10.142-29.362-2.861-36.054-23.743-29.937-35.519 3.74-7.203.63-2.11 13.361-14.728 12.732-12.619 22.955-24.5 33.636-35.157z"/>
            <path fill="#03518E" fill-rule="nonzero" d="M150.21 84.817c26.102 1.132 19.746 22.036 8.268 39.897-7.167 11.16-17.169 15.122-32.504 13.89-17.363-1.394-31.756-12.844-15.461-34.038 16.295-21.193 20.519-20.568 39.698-19.749z"/>
            <path fill="#5078BB" fill-rule="nonzero" d="M136.714 95.425s-33.817 19.795-26.564 27.582h-8.05s12.85-30.787 32.98-40.227l1.634 12.645z"/>
            <path fill="url(#l)" fill-rule="nonzero" d="M44.043 173.046l5.225-6.474 10.468 2.504s-4.197 6.243-5.103 8.43c-.905 2.187-3.518 2.436-6.642.978-3.124-1.458-4.844-3.115-3.948-5.438z"/>
            <path fill="url(#k)" d="M55.398 175.976s-1.634 2.97-4.405 2.336c-2.4-.543-7.82-3.047-6.95-5.266l-16.847-3.902a2.658 2.658 0 0 0-2.884 1.403c-.445.675-.401 1.56.108 2.187 1.182 1.499 18.468 8.856 25.41 11.505a3.346 3.346 0 0 0 4.278-2.187c.48-1.567 1.29-6.076 1.29-6.076z"/>
            <path fill="#6381C1" fill-rule="nonzero" d="M140.227 70.478l4.125-.751 17.726 4.527 4.753 9.93-6.868 35.396-16.49.783-14.827-2.168s6.09-20.406 7.117-27.41c.444-3.002 1.485-19.687 4.464-20.307z"/>
            <path fill="url(#m)" d="M141.314 64.778a51.429 51.429 0 0 1-.263 5.7c-1.471 8.39 12.741.371 12.741.371l-3.047-.37-3.296-12.506-3.391-.322-2.744 7.127z"/>
            <use fill="url(#n)" xlink:href="#o"/>
            <use fill="#000" filter="url(#p)" xlink:href="#o"/>
            <path fill="url(#q)" d="M122.488 86.09l-4.627 5.555-18.518 13.266-4.233 1.204-1.884 1.254 9.58 1.204.35-1.046 19.332-10.671 6.443-5.632z"/>
            <use fill="url(#r)" xlink:href="#s"/>
            <use fill="#000" filter="url(#t)" xlink:href="#s"/>
            <path fill="url(#u)" d="M162.784 86.09s-7.53 33.05-26.07 30.986c0 0-4.528-.176-8.63-4.22l3.496-8.539 31.204-18.228z"/>
            <path fill="url(#q)" d="M151.03 95.815a42.406 42.406 0 0 1-11.577 7.746c-6.08 2.717-19.645 5.433-24.422 6.38l-2.354.249-8.634-1.037 1.86-.86 4.166-.453 24.703-10.59 8.942-7.86 7.316 6.425z"/>
            <use fill="url(#r)" xlink:href="#v"/>
            <use fill="#000" filter="url(#w)" xlink:href="#v"/>
            <path fill="url(#x)" d="M124.195 50.638c-.616 3.047.349 6.792 1.037 8.263.57 1.209 1.62 1.766 1.182 3.341-.195.68-.806 3.917-.118 3.817 1.25-.176 1.775-.584 1.81-.453.404.965 1.432 5.782 2.912 6.66 1.549.906 6.552-1.81 9.508-3.798 1.612-1.069 2.717-1.499 4.143-3.265 1.426-1.765 1.281-2.168 2.055-4.387 1.037-2.965.987-5.102.136-8.693-2.508-10.77-21.918-5.193-22.665-1.485z"/>
            <path fill="#143B8C" fill-rule="nonzero" d="M129.574 61.903c-1.06.19-2.133-.829-2.395-2.264-.263-1.435.394-2.77 1.453-2.961 1.06-.19 2.137.829 2.395 2.264.258 1.435-.394 2.784-1.453 2.96zm-.774-4.32c-.693.127-1.119.992-.947 1.93.172.936.865 1.602 1.558 1.475.693-.126 1.114-.987.946-1.924-.167-.937-.87-1.603-1.557-1.48zM124.938 63.23c-1.06.19-2.133-.83-2.395-2.264-.263-1.436.393-2.771 1.453-2.961 1.06-.19 2.137.828 2.395 2.263.258 1.436-.394 2.771-1.453 2.961zm-.775-4.32c-.692.122-1.118.987-.946 1.929.172.942.865 1.598 1.558 1.476.692-.122 1.113-.987.946-1.929-.168-.942-.87-1.598-1.558-1.476z"/>
            <path fill="#143B8C" fill-rule="nonzero" d="M127.514 60.536l-1.377.249-.163-.915 1.29-.23zM128.958 67.952c-.349-.752 2.486-.095 2.332-2.762 0 0 .511 1.385-.394 2.264-.906.878-1.838.706-1.938.498z"/>
            <use fill="url(#y)" xlink:href="#z"/>
            <use fill="#000" filter="url(#A)" xlink:href="#z"/>
            <path fill="url(#B)" d="M160.389 119.06c-.906 5.392-6.14 13.247-13.022 15.715-10.277 3.685-17.467 3.146-17.467 3.146l-34.835-8.28-34.736 42.957-11.863-5.247s24.092-38.81 30.114-46.97c3.495-4.736 6.04-11.771 13.13-10.59 7.09 1.182 21.193 2.264 35.446 6.158 19.052 2.612 25.726 3.604 33.233 3.11z"/>
            <path fill="#295CCF" fill-rule="nonzero" d="M164.201 129.64s-1.29 2.264-7.045 3.201c-3.373.548-5.65-.452-13.41 1.644-6.756 1.81-10.179 2.3-13.837 3.445-3.437 1.073-4.682.48-7.625.906-16.697 2.476 11.89 9.748 25.631 4.555 13.741-5.194 16.286-13.75 16.286-13.75z"/>
            <path fill="url(#B)" d="M123.18 114.921s-31.783-3.17-48.942 11.772l6.655-9.825s3.726-6.678 7.004-7.217c4.591-.747 25.998 2.984 35.284 5.27z"/>
            <path fill="#1F56D6" fill-rule="nonzero" d="M72.155 108.36s7.765 7.082 0 21.525c0 0 13.13-20.646 19.55-20.107 6.42.538 19.899 1.29 19.899 1.29l-36.03-5.65c-1.279.807-2.43 1.799-3.42 2.943z"/>
            <path fill="#FFF" fill-rule="nonzero" d="M62.33 104.204l29.538 3.862-6.275-27.283a3.957 3.957 0 0 0-3.35-3.043l-23.757-3.106a2.137 2.137 0 0 0-2.359 2.6l6.203 26.97z"/>
            <path fill="url(#C)" fill-rule="nonzero" d="M61.18 104.055l29.543 3.862-6.276-27.283a3.957 3.957 0 0 0-3.35-3.043L57.35 74.485a2.137 2.137 0 0 0-2.364 2.599l6.194 26.97z"/>
            <path fill="url(#D)" fill-rule="nonzero" d="M63.104 105.735l49.396 6.456a1.164 1.164 0 0 0 1.304-1.005 1.168 1.168 0 0 0-1.005-1.309l-51.705-6.755a2.336 2.336 0 0 0 2.01 2.613z"/>
            <path fill="#FFF" fill-rule="nonzero" d="M73.68 93.148c.947-1.281-1.04-.765-2.327-1.712-1.285-.946-1.358-2.997-2.322-1.716a2.889 2.889 0 1 0 4.65 3.428z"/>
            <path fill="url(#E)" fill-rule="nonzero" d="M173.918 157.118a1.951 1.951 0 0 1-1.562-.534 2.898 2.898 0 0 1-.874-1.204 6.51 6.51 0 0 1-.213-3.17c.187-.932.443-1.849.765-2.743.222-.756.453-1.494.72-2.228a40.01 40.01 0 0 0 1.358-4.609 14.42 14.42 0 0 0 .308-4.297 10.608 10.608 0 0 0-1.403-4.333c-.752-1.29-1.44-3.368-.616-5.07.71-1.477 2.02-1.916 3.02-1.726.905.172 1.81.97 2.404 2.264-.72-1.032-1.567-1.81-2.463-1.938-.897-.126-1.852.453-2.44 1.73-.68 1.485 0 2.599.615 3.518a17.205 17.205 0 0 1 1.929 3.17 8.802 8.802 0 0 1 .643 3.549c-.131 6.008-5.542 10.137-4.215 13.189a6.52 6.52 0 0 0 1.947 2.454c.306.235.573.52.787.842a.77.77 0 0 1 .127.376.616.616 0 0 1-.271.543c-.171.112-.364.186-.566.217z" style="mix-blend-mode:soft-light"/>
            <path fill="url(#F)" fill-rule="nonzero" d="M176.222 155.651h-.23a5.696 5.696 0 0 1-.743-.04 9.091 9.091 0 0 1-2.84-.693c-.81-.39-1.14-.865-1.217-1.327a1.48 1.48 0 0 1 .104-.81 2.63 2.63 0 0 1 .417-.697c2.748-3.423 9.19-6.946 2.843-10.527-6.348-3.581 5.306-5.696 8.906-2.762 0 0-4.736-2.467-8.716-.353-3.98 2.114 4.17 2.716 3.917 6.366-.254 3.649-8.657 7.244-6.194 9.087a7.665 7.665 0 0 0 3.481 1.358c.269.012.534.055.793.127.194.14-.181.235-.52.271z" style="mix-blend-mode:soft-light"/>
            <path fill="url(#G)" fill-rule="nonzero" d="M180.283 162.692a2.98 2.98 0 0 1-.407-.027l.181-1.359a2.54 2.54 0 0 0 1.811-.557c.479-.384.768-.957.792-1.57.032-.48-.135-.625-.19-.675-.367-.317-1.263-.254-1.616-.172l-.294-1.327c.185-.04 1.81-.371 2.798.453a2.06 2.06 0 0 1 .656 1.81 3.49 3.49 0 0 1-1.286 2.532 4.002 4.002 0 0 1-2.445.892z"/>
            <path fill="url(#H)" fill-rule="nonzero" d="M170.409 154.175h10.866a.729.729 0 0 1 .71.883l-1.652 10.165a.724.724 0 0 1-.71.566h-7.403a.724.724 0 0 1-.707-.553l-1.81-10.16a.729.729 0 0 1 .706-.9z"/>
            <path fill="#F7F7F7" fill-rule="nonzero" d="M180.505 155.674a.503.503 0 0 0-.593.376c-.14.905-.665 4.414-.806 5.329a.495.495 0 1 0 .965.222l.806-5.334a.503.503 0 0 0-.372-.593zM179.559 162.27a.503.503 0 0 0-.593.372c-.14.905-.036.29-.181 1.204a.512.512 0 0 0 .371.593c.267.057.53-.11.593-.375l.181-1.2a.503.503 0 0 0-.371-.593z"/>
            <g fill-rule="nonzero">
                <path fill="url(#I)" d="M8.489 13.988a2.069 2.069 0 0 1-1.087-.312L1.035 9.723A2.084 2.084 0 0 1 .883 6.29l6.364-4.787a2.076 2.076 0 0 1 2.84.464c.67.893.517 2.157-.345 2.864L5.81 7.79l3.781 2.348a2.086 2.086 0 0 1-1.087 3.851H8.49z" opacity=".35" transform="translate(0 67.914)"/>
                <path fill="url(#J)" d="M14.483 13.988a2.076 2.076 0 0 1-1.972-1.422c-.283-.85.01-1.787.726-2.324l3.934-2.958-3.781-2.349a2.083 2.083 0 0 1-.601-2.81 2.073 2.073 0 0 1 2.774-.729l6.364 3.957a2.077 2.077 0 0 1 .152 3.43l-6.364 4.788a2.05 2.05 0 0 1-1.232.417z" opacity=".35" transform="translate(0 67.914)"/>
                <path fill="#FFF" d="M8.489 80.86a2.069 2.069 0 0 1-1.087-.312l-6.367-3.953a2.084 2.084 0 0 1-.152-3.433l6.364-4.788a2.076 2.076 0 0 1 2.84.465c.67.893.517 2.156-.345 2.863L5.81 74.661l3.781 2.348a2.086 2.086 0 0 1-1.087 3.852H8.49zM14.483 80.86a2.076 2.076 0 0 1-1.972-1.422c-.283-.85.01-1.787.726-2.323l3.934-2.959-3.781-2.348a2.083 2.083 0 0 1-.601-2.81 2.073 2.073 0 0 1 2.774-.73l6.364 3.957a2.08 2.08 0 0 1 .152 3.434l-6.364 4.784a2.05 2.05 0 0 1-1.232.418z"/>
            </g>
        </g>
        <g fill="#2AD352" fill-rule="nonzero" transform="matrix(-1 0 0 1 179.715 54.31)">
            <circle cx="2.252" cy="2.309" r="2.167"/>
            <circle cx="6.791" cy="5.282" r="1"/>
        </g>
        <path stroke="#C6D2EA" stroke-linecap="round" stroke-linejoin="round" stroke-width=".604" d="M166.887 14.823C165.679-.252 147.17-1.547 136.475 2.668c-6.112 2.408-9.96 8.428-6.414 17.534M163.557 29.258c-1.063 2.988.93 6.133 3.42 7.676 4.574 2.837 10.18 1.548 15.23 2.196 5.403.695 9.992 4.183 11.694 9.445M186.959 59.14c-.917.426-1.893.721-2.896.878-1.006.108-2.103-.1-2.839-.77M173.98 55.669c-1.376-.21-2.046-1.514-2.382-2.724-.746-2.725 0-6.006-1.743-8.424-1.403-1.934-3.795-2.86-6.138-2.724"/>
        <g fill-rule="nonzero" stroke-width=".604">
            <path stroke="#0060FF" d="M188.56 52.06l5.026-2.38a.15.15 0 0 1 .215.148l-.451 5.545a.15.15 0 0 1-.237.112l-4.575-3.164a.15.15 0 0 1 .021-.26z"/>
            <path stroke="#143B8C" d="M187.656 58.463l.439-5.024a.15.15 0 0 1 .237-.11l4.13 2.893a.15.15 0 0 1-.022.26l-4.57 2.13a.15.15 0 0 1-.214-.15z"/>
        </g>
        <path stroke="#0060FF" stroke-width=".604" d="M164.623 19.448l-.453-2.264M161.979 23.372l-.375-2.386v-.006l2.55-3.947 3.922 2.565.003.006.619 2.34"/>
        <path stroke="#0060FF" stroke-width=".604" d="M168.538 22.007l-3.922-2.55-2.552 3.922 3.923 2.55z"/>
        <path fill="#0060FF" fill-rule="nonzero" d="M164.472 19.371l-.387-1.885-2.632 3.531.561 2.204z"/>
    </g>
</svg>
