<?xml version="1.0" encoding="UTF-8"?>
<svg width="52px" height="52px" viewBox="0 0 52 52" version="1.1" xmlns="http://www.w3.org/2000/svg" xmlns:xlink="http://www.w3.org/1999/xlink">
    <!-- Generator: Sketch 48.1 (47250) - http://www.bohemiancoding.com/sketch -->
    <title>Shape</title>
    <desc>Created with Sketch.</desc>
    <defs></defs>
    <g id="Page-1" stroke="none" stroke-width="1" fill="none" fill-rule="evenodd">
        <g id="Close" fill="#000000" fill-rule="nonzero" stroke="#000000" stroke-width="3">
            <path d="M49.9598742,51 C49.6932019,51 49.4265297,50.8979135 49.2223588,50.6958238 L1.30469385,2.77765972 C0.898435384,2.37139702 0.898435384,1.71095972 1.30469385,1.30469702 C1.71095231,0.898434326 2.37138274,0.898434326 2.7776412,1.30469702 L50.6953062,49.2228611 C51.1015646,49.6291238 51.1015646,50.2895611 50.6953062,50.6958238 C50.4932186,50.8979135 50.2265464,51 49.9598742,51 Z" id="Shape"></path>
            <path d="M2.04220921,51 C1.77553699,51 1.50886477,50.8979135 1.30469385,50.6958238 C0.898435384,50.2895611 0.898435384,49.6291238 1.30469385,49.2228611 L49.2223588,1.30469702 C49.6286173,0.898434326 50.2890477,0.898434326 50.6953062,1.30469702 C51.1015646,1.71095972 51.1015646,2.37139702 50.6953062,2.77765972 L2.7776412,50.6958238 C2.57555366,50.8979135 2.30888144,51 2.04220921,51 Z" id="Shape"></path>
        </g>
    </g>
</svg>