<?xml version="1.0" encoding="UTF-8"?>
<svg width="215px" height="29px" viewBox="0 0 215 29" version="1.1" xmlns="http://www.w3.org/2000/svg" xmlns:xlink="http://www.w3.org/1999/xlink">
    <!-- Generator: Sketch 53.2 (72643) - https://sketchapp.com -->
    <title>Ellcrys logo_black2019</title>
    <desc>Created with Sketch.</desc>
    <defs>
        <path d="M16.36223,23.6241778 L22.62273,20.0106522 L27.8282444,17.0059078 L22.09586,26.9346111 L16.36223,23.6241778 Z M23.9825811,26.1018411 L28.8811611,17.6171378 L28.8811611,23.2736278 L23.9825811,26.1018411 Z M30.1041067,15.3405367 L30.1041067,15.0871189 L29.9250633,14.9081178 L15.5759044,0.559022222 L15.1434856,0.126603333 L14.7110033,0.559022222 L0.361907778,14.9081178 L0.182843333,15.0871611 L0.182843333,15.3405367 L0.182843333,23.6248956 L0.182843333,23.9761211 L0.488595556,24.1527156 L7.66329111,28.2950111 L7.96902222,28.4714789 L8.27475333,28.2950111 L15.1434856,24.3291833 L22.01245,28.2950111 L22.3182444,28.4714789 L22.6239122,28.2950111 L29.7983122,24.1527156 L30.1041067,23.9761211 L30.1041067,23.6248956 L30.1041067,15.3405367 Z M22.0657556,18.9249289 L22.0128089,18.9555189 L15.1434856,22.9219378 L8.27433111,18.9555189 L8.22096222,18.9246967 L15.1434222,12.0027011 L22.0657556,18.9249289 Z M2.46094333,17.0069211 L7.66453667,20.0106522 L13.92472,23.6241778 L8.19235667,26.9338933 L2.46094333,17.0069211 Z M28.4986067,15.2114 L23.3454478,18.1865256 L17.0033322,3.71618889 L28.4978889,15.2106189 L28.4986067,15.2114 Z M1.40578889,17.6195867 L6.30240556,26.1008278 L1.40578889,23.2736278 L1.40578889,17.6195867 Z M21.2001367,16.3296767 L15.5759044,10.7054444 L15.1437178,10.2730256 L14.7110033,10.7054444 L9.08651778,16.3296767 L15.1434222,2.51019556 L21.2001367,16.3296767 Z M13.2836389,3.71618889 L6.94158667,18.1858711 L6.94122778,18.1865256 L1.78830111,15.2114 L1.78908222,15.2106189 L13.2836389,3.71618889 Z" id="path-1"></path>
    </defs>
    <g id="Page-1" stroke="none" stroke-width="1" fill="none" fill-rule="evenodd" opacity="0.831975446">
        <g id="Ellcrys-logo_black2019">
            <g id="Page-1">
                <g id="Ellcrys-logo">
                    <g id="Page-1">
                        <g id="s2">
                            <g id="Ellcrys-logo">
                                <path d="M44,6.94613377 L44,7.5 L47.885894,7.5 L50.6292394,7.5 L60.5,7.5 L60.5,4.5 L46.8651484,4.5 C45.2827707,4.5 44,5.59517141 44,6.94613377 Z M44,25.5 L60.5,25.5 L60.5,22.2429622 L47.8483168,22.2429622 L47.8483168,16.7564719 L58.9223423,16.7564719 L58.9223423,13.5 L50.565563,13.5 L47.8483168,13.5 L46.8378905,13.5 C45.2705669,13.5 44,14.6887983 44,16.1552553 L44,25.5 Z M84.5,25.836442 L84.5,23.4318382 L73.2345037,23.4318382 L73.2345037,4.5 L72.2535251,4.5 C70.7327951,4.5 69.5,5.80235663 69.5,7.40889491 L69.5,27 L83.3985899,27 C84.0068822,27 84.5,26.4790574 84.5,25.836442 Z M110,25.836442 L110,23.4318382 L98.7340603,23.4318382 L98.7340603,4.5 L97.7536335,4.5 C96.2328436,4.5 95,5.80235663 95,7.40889491 L95,27 L108.898547,27 C109.506863,27 110,26.4790574 110,25.836442 Z M133.899519,21.7195142 C133.273752,22.1853117 132.764094,22.5209931 132.370543,22.7265584 C131.399717,23.2342168 130.239119,23.4883457 128.88936,23.4883457 C127.834326,23.4883457 126.859838,23.2869606 125.962846,22.8823921 C125.065854,22.478423 124.290902,21.9240144 123.636769,21.2197656 C122.983246,20.5155168 122.476781,19.6919952 122.118595,18.7492008 C121.759188,17.8070059 121.580399,16.7964838 121.580399,15.7194326 C121.580399,14.6417821 121.759188,13.6366543 122.118595,12.704049 C122.476781,11.7720431 122.983246,10.9599094 123.636769,10.2652504 C124.290292,9.57059139 125.065854,9.02277568 125.962846,8.61820723 C126.859838,8.21423812 127.834326,8.01165426 128.88936,8.01165426 C130.155522,8.01165426 131.28378,8.26038894 132.274742,8.75785826 C132.643082,8.94209467 133.097454,9.22613749 133.637858,9.60998676 L133.637859,9.60998512 C134.484568,10.2114031 135.65524,10.0779307 136.341107,9.3017781 C137.016716,8.53723339 136.937207,7.37623148 136.163517,6.70860771 C136.126505,6.67667019 136.088227,6.64619462 136.048774,6.61725281 C136.001874,6.58284142 135.956938,6.55057378 135.913968,6.52044487 C135.323295,6.10568724 134.680146,5.74786896 133.983909,5.44758924 C133.287672,5.14730954 132.523093,4.91415823 131.690172,4.74873468 C130.856641,4.58271177 129.93402,4.5 128.92109,4.5 C127.233891,4.5 125.694359,4.79488546 124.302496,5.38585509 C122.910632,5.97682474 121.707931,6.78476289 120.695611,7.80966968 C119.682681,8.8357752 118.897355,10.0320991 118.338413,11.3986415 C117.779471,12.7663825 117.5,14.2276238 117.5,15.7811668 C117.5,17.3556872 117.784963,18.8265184 118.353668,20.1942595 C118.924204,21.5614012 119.70892,22.7475359 120.710866,23.7526638 C121.712202,24.7577917 122.899039,25.5495472 124.270766,26.1303276 C125.641272,26.7105088 127.13931,27 128.763048,27 C129.796725,27 130.740703,26.9124933 131.595591,26.7362813 C132.449259,26.5594699 133.235195,26.3011454 133.952179,25.9595098 C134.670383,25.6178743 135.33855,25.2133058 135.961563,24.7470032 C136.090949,24.6500018 136.238086,24.5312163 136.402973,24.3906467 L136.402982,24.3906573 C137.122878,23.7769311 137.202993,22.7027156 136.581925,21.9913298 C136.55549,21.9610499 136.527983,21.9317005 136.499453,21.9033364 C135.800955,21.2088716 134.690951,21.130388 133.899512,21.7195058 L133.899519,21.7195142 Z M158.272913,18.4815274 C159.020356,18.2676668 159.702347,17.962063 160.318302,17.5659559 C160.93484,17.168609 161.465472,16.6869576 161.909614,16.1191421 C162.353755,15.5513266 162.702055,14.8973469 162.955099,14.157823 C163.208143,13.4195388 163.333204,12.5783536 163.333204,11.6355071 C163.333204,10.5426481 163.15204,9.55207039 162.787961,8.6619142 C162.424467,7.77237787 161.903769,7.02293576 161.227623,6.41234814 C160.550307,5.80114059 159.721632,5.33002726 158.742768,4.99776841 C157.762735,4.66550955 156.666991,4.5 155.454953,4.5 L148.725794,4.5 C147.220379,4.5 146,5.80232075 146,7.40881477 L146,8.06744362 L149.696893,8.06744362 L151.822344,8.06744362 L155.135872,8.06744362 C156.535502,8.06744362 157.621311,8.38358542 158.388624,9.02144807 C159.16178,9.65373172 159.545145,10.5953385 159.545145,11.8444087 C159.545145,13.0066948 159.151261,13.9340441 158.358235,14.6202579 C157.571053,15.3108108 156.505698,15.6536077 155.167429,15.6536077 L151.822344,15.6536077 L149.696893,15.6536077 L148.725794,15.6536077 C147.220379,15.6536077 146,16.9559285 146,18.5624225 L146,27 L149.696893,27 L149.696893,19.157823 L154.379079,19.157823 L158.790304,25.7770153 C159.301639,26.5442898 160.129354,27 161.011636,27 L164,27 L158.272913,18.4815274 Z M187.22216,4.5 L181.256281,14.4630813 L175.351992,4.5 C174.053022,4.5 173,5.63029527 173,7.02458515 C173,7.51883258 173.135158,8.00220905 173.388713,8.41477215 L179.358682,18.1285679 L179.358682,27 L183.094037,27 L183.094037,18.0312431 L189.119189,8.29766731 C189.815313,7.17308499 189.530304,5.65569981 188.482604,4.90849271 C188.109084,4.64210298 187.670611,4.5 187.22216,4.5 Z M203.379488,8.67177834 C204.02208,8.16130503 204.919727,7.90576701 206.075526,7.90576701 C207.102559,7.90576701 208.119686,8.09862586 209.12567,8.48313822 C210.131655,8.86945863 211.148164,9.42694132 212.175196,10.1555862 L212.483157,9.73310817 C213.409789,8.46193119 213.108831,6.69571188 211.810948,5.78814691 C211.683298,5.69888517 211.548433,5.61995849 211.407695,5.55215034 C211.105692,5.40664558 210.831811,5.29017196 210.58605,5.20272949 C209.269913,4.73444406 207.787247,4.5 206.139909,4.5 C205.027445,4.5 204.000412,4.65067099 203.063764,4.95201297 C202.122162,5.25456031 201.319851,5.68728739 200.651259,6.24959152 C199.982666,6.81310099 199.458316,7.48388823 199.072637,8.26496662 C198.693149,9.04664774 198.5,9.91632067 198.5,10.8745882 C198.5,11.8955348 198.66591,12.7603863 198.998349,13.4685399 C199.32955,14.1772962 199.816137,14.7811855 200.447585,15.2814132 C201.079653,15.7816409 201.865869,16.1980955 202.796327,16.5319824 C203.732975,16.8652667 204.797152,17.1672113 206.001857,17.4372137 C207.049938,17.6873275 207.900537,17.9265931 208.559224,18.1562157 C209.211721,18.3852356 209.725547,18.6299252 210.105035,18.8908874 C210.478952,19.1518496 210.736483,19.4375218 210.875155,19.7497121 C211.014445,20.062505 211.084399,20.4162805 211.084399,20.8128466 C211.084399,21.6668497 210.72596,22.3442664 210.00908,22.8438915 C209.291581,23.3441191 208.32336,23.5936303 207.103797,23.5936303 C205.691704,23.5936303 204.429426,23.3495433 203.315724,22.8589585 C202.20326,22.3695792 201.101321,21.666247 200.009905,20.7507701 L199.702076,21.1070776 C198.671966,22.2994139 198.823783,24.08388 200.041168,25.0927941 C200.167093,25.1971551 200.301917,25.2907554 200.444161,25.3725681 C201.049224,25.7205755 201.578637,25.976577 202.032398,26.1405726 C203.616591,26.7137251 205.274453,27 207.007841,27 C208.184688,27 209.26558,26.8547531 210.249897,26.5618488 C211.229261,26.2707524 212.074288,25.8440521 212.77012,25.2805427 C213.470285,24.7182385 214.016302,24.0311788 214.412505,23.2181582 C214.802518,22.4051375 215,21.4782096 215,20.4373744 C215,19.5206921 214.845233,18.7233413 214.534462,18.0459245 C214.224309,17.3697131 213.764961,16.7754667 213.165085,16.2649934 C212.566446,15.7545201 211.806232,15.3229984 210.896822,14.9692229 C209.986793,14.6148448 208.938712,14.2912035 207.761865,14.0001071 C206.686546,13.7493906 205.803756,13.5107277 205.102352,13.2811052 C204.407759,13.0520853 203.861122,12.8025741 203.460586,12.5319691 C203.064383,12.2607612 202.792612,11.9684595 202.642179,11.656872 C202.491126,11.3440789 202.416219,10.9692095 202.416219,10.5310583 C202.416219,9.80241339 202.737515,9.18225165 203.379488,8.67177834 Z" id="Shape" fill="#29292A" fill-rule="nonzero"></path>
                                <g id="icon-1" transform="translate(0.405556, 0.000000)">
                                    <g id="Fill-1-Clipped">
                                        <g>
                                            <mask id="mask-2" fill="white">
                                                <use xlink:href="#path-1"></use>
                                            </mask>
                                            <g id="path-1"></g>
                                            <path d="M16.36223,23.6241778 L22.62273,20.0106522 L27.8282444,17.0059078 L22.09586,26.9346111 L16.36223,23.6241778 Z M23.9825811,26.1018411 L28.8811611,17.6171378 L28.8811611,23.2736278 L23.9825811,26.1018411 Z M30.1041067,15.3405367 L30.1041067,15.0871189 L29.9250633,14.9081178 L15.5759044,0.559022222 L15.1434856,0.126603333 L14.7110033,0.559022222 L0.361907778,14.9081178 L0.182843333,15.0871611 L0.182843333,15.3405367 L0.182843333,23.6248956 L0.182843333,23.9761211 L0.488595556,24.1527156 L7.66329111,28.2950111 L7.96902222,28.4714789 L8.27475333,28.2950111 L15.1434856,24.3291833 L22.01245,28.2950111 L22.3182444,28.4714789 L22.6239122,28.2950111 L29.7983122,24.1527156 L30.1041067,23.9761211 L30.1041067,23.6248956 L30.1041067,15.3405367 Z M22.0657556,18.9249289 L22.0128089,18.9555189 L15.1434856,22.9219378 L8.27433111,18.9555189 L8.22096222,18.9246967 L15.1434222,12.0027011 L22.0657556,18.9249289 Z M2.46094333,17.0069211 L7.66453667,20.0106522 L13.92472,23.6241778 L8.19235667,26.9338933 L2.46094333,17.0069211 Z M28.4986067,15.2114 L23.3454478,18.1865256 L17.0033322,3.71618889 L28.4978889,15.2106189 L28.4986067,15.2114 Z M1.40578889,17.6195867 L6.30240556,26.1008278 L1.40578889,23.2736278 L1.40578889,17.6195867 Z M21.2001367,16.3296767 L15.5759044,10.7054444 L15.1437178,10.2730256 L14.7110033,10.7054444 L9.08651778,16.3296767 L15.1434222,2.51019556 L21.2001367,16.3296767 Z M13.2836389,3.71618889 L6.94158667,18.1858711 L6.94122778,18.1865256 L1.78830111,15.2114 L1.78908222,15.2106189 L13.2836389,3.71618889 Z" id="Fill-1" fill="#29292A" fill-rule="nonzero" mask="url(#mask-2)"></path>
                                        </g>
                                    </g>
                                </g>
                            </g>
                        </g>
                    </g>
                </g>
            </g>
        </g>
    </g>
</svg>