<?xml version="1.0" encoding="UTF-8"?>
<svg width="366px" height="347px" viewBox="0 0 366 347" version="1.1" xmlns="http://www.w3.org/2000/svg" xmlns:xlink="http://www.w3.org/1999/xlink">
    <!-- Generator: Sketch 48.1 (47250) - http://www.bohemiancoding.com/sketch -->
    <title>Ellcrys file 1 rgb.eps</title>
    <desc>Created with Sketch.</desc>
    <defs>
        <path d="M197.162058,287.437816 L350.159784,200.188929 L350.159784,282.659162 L269.107319,326.956633 L197.162058,287.437816 Z M365.080054,182.951619 L362.893946,180.763867 L187.814054,5.28761905 L182.538378,0 L177.262703,5.29092381 L2.18281081,180.767171 L0,182.951619 L0,186.051486 L0,287.362267 L0,291.658457 L3.72924324,293.816467 L91.2691892,344.471857 L94.9984324,346.629867 L98.7276757,344.471857 L182.535081,295.971171 L266.345784,344.471857 L270.078324,346.626562 L273.807568,344.471857 L361.344216,293.816467 L365.076757,291.658457 L365.076757,287.362267 L365.076757,186.051486 L365.080054,182.951619 Z M267.001946,229.885848 L266.355676,230.255981 L182.541676,278.763276 L98.730973,230.255981 L98.0814054,229.879238 L182.544973,145.231067 L267.001946,229.885848 Z M282.614649,220.857238 L205.230378,43.8971524 L345.480919,184.461895 L282.614649,220.857238 Z M166.260742,286.527895 L94.7920436,328.519188 L14.9202703,283.066076 L14.9202703,202.466869 L166.260742,286.527895 Z M256.437405,198.146914 L187.814054,129.36821 L182.538378,124.077286 L177.259405,129.36821 L108.632757,198.146914 L182.535081,29.1513048 L256.437405,198.146914 Z M159.849676,43.8971524 L82.4654054,220.847324 L82.4621081,220.857238 L19.5892432,184.47181 L19.5958378,184.461895 L159.849676,43.8971524 Z" id="path-1"></path>
    </defs>
    <g id="Page-1" stroke="none" stroke-width="1" fill="none" fill-rule="evenodd">
        <g id="Ellcrys-file-1-rgb.eps">
            <g id="Clipped">
                <mask id="mask-2" fill="white">
                    <use xlink:href="#path-1"></use>
                </mask>
                <use id="SVGID_1_" fill="#000000" xlink:href="#path-1"></use>
            </g>
        </g>
    </g>
</svg>