<svg xmlns="http://www.w3.org/2000/svg" width="162" height="21" viewBox="0 0 162 21">
    <g fill="none" fill-rule="nonzero" opacity=".832">
        <path fill="#000" d="M34.5 5.407v.48h12.05V3.283h-9.958c-1.155 0-2.092.951-2.092 2.125zm0 14.311h12.166v-2.606h-9.329V12.72h8.165v-2.606H36.592c-1.155 0-2.092.951-2.092 2.125v7.478zm30.781-.85v-1.756h-8.56V3.282h-.746c-1.155 0-2.092.951-2.092 2.125v14.311h10.561c.463 0 .837-.38.837-.85zm18.197 0v-1.756h-8.56V3.282h-.745c-1.156 0-2.093.951-2.093 2.125v14.311h10.561c.463 0 .837-.38.837-.85zm17.205-2.858c-.46.352-.835.606-1.124.761-.714.384-1.567.576-2.56.576a5.05 5.05 0 0 1-2.15-.458 5.255 5.255 0 0 1-1.71-1.256 5.705 5.705 0 0 1-1.117-1.867 6.528 6.528 0 0 1-.396-2.29c0-.813.132-1.573.396-2.277a5.604 5.604 0 0 1 1.116-1.843 5.33 5.33 0 0 1 1.71-1.244A5.057 5.057 0 0 1 97 5.653c.93 0 1.76.188 2.488.564.271.14.605.354 1.003.644a1.47 1.47 0 0 0 1.987-.233 1.404 1.404 0 0 0-.215-2.028 7.856 7.856 0 0 0-3.204-1.412A10.173 10.173 0 0 0 97.023 3c-1.24 0-2.372.223-3.396.67a8.161 8.161 0 0 0-2.651 1.83 8.302 8.302 0 0 0-1.733 2.712 8.88 8.88 0 0 0-.617 3.312c0 1.19.21 2.3.628 3.334a8.299 8.299 0 0 0 1.733 2.688 8.105 8.105 0 0 0 2.617 1.797c1.008.438 2.109.657 3.303.657.76 0 1.454-.066 2.082-.2a7.45 7.45 0 0 0 1.733-.586 8.635 8.635 0 0 0 1.477-.916c.095-.074.203-.163.324-.27a1.3 1.3 0 0 0 .071-1.879 1.442 1.442 0 0 0-1.911-.139zm19.05-2.514a6.02 6.02 0 0 0 1.57-.67c.473-.29.88-.641 1.221-1.056.341-.415.608-.893.803-1.433.194-.54.29-1.154.29-1.843 0-.798-.14-1.522-.419-2.172a4.449 4.449 0 0 0-1.197-1.643c-.52-.447-1.156-.791-1.908-1.034-.752-.242-1.593-.363-2.524-.363h-5.165c-1.156 0-2.093.951-2.093 2.125v.48h7.013c1.075 0 1.908.232 2.497.698.594.462.888 1.15.888 2.062 0 .85-.302 1.527-.911 2.028-.604.504-1.422.755-2.45.755h-4.944c-1.156 0-2.093.951-2.093 2.125v6.164h2.838v-5.73h3.594l3.387 4.836c.392.56 1.028.894 1.705.894h2.294l-4.396-6.223zm21.476-10.214l-4.606 7.278-4.559-7.278c-1.003 0-1.816.825-1.816 1.844 0 .361.105.714.3 1.015l4.61 7.097v6.48h2.884v-6.552l4.652-7.11a1.803 1.803 0 0 0-.492-2.476 1.74 1.74 0 0 0-.973-.298zm11.87 2.9c.466-.384 1.116-.576 1.954-.576.744 0 1.481.145 2.21.434.73.29 1.466.709 2.21 1.256l.223-.317a2.146 2.146 0 0 0-.487-2.964 2.086 2.086 0 0 0-.292-.178 5.993 5.993 0 0 0-.596-.262c-.953-.352-2.028-.528-3.221-.528-.807 0-1.55.113-2.23.34a5.051 5.051 0 0 0-1.748.974 4.63 4.63 0 0 0-1.144 1.515 4.568 4.568 0 0 0-.415 1.96c0 .768.12 1.417.362 1.95.24.532.592.986 1.05 1.362.458.376 1.027.688 1.702.94.678.25 1.45.477 2.323.68.76.187 1.375.367 1.853.54.473.172.845.356 1.12.552.27.196.457.41.558.645.1.235.152.501.152.799 0 .642-.26 1.15-.78 1.526-.52.376-1.221.563-2.105.563-1.023 0-1.938-.183-2.745-.552-.806-.367-1.605-.896-2.395-1.584l-.224.268a2.148 2.148 0 0 0 .538 3.205 7.37 7.37 0 0 0 1.151.577c1.148.43 2.35.646 3.606.646a7.94 7.94 0 0 0 2.349-.33c.71-.218 1.322-.539 1.826-.962a4.451 4.451 0 0 0 1.19-1.55c.283-.61.426-1.307.426-2.09 0-.688-.112-1.287-.337-1.796a3.855 3.855 0 0 0-.993-1.338c-.433-.384-.984-.708-1.643-.974-.66-.266-1.42-.51-2.272-.728a22.855 22.855 0 0 1-1.927-.54c-.504-.172-.9-.36-1.19-.563-.287-.204-.484-.424-.593-.658a1.99 1.99 0 0 1-.164-.846c0-.547.233-1.013.698-1.397zM19.227 20.335l6.242-3.129V10.95z"/>
        <path fill="#1E273F" d="M12.985 17.206l6.242 3.129 6.242-9.386z"/>
        <path fill="#06090B" d="M19.892 13.749l5.587-2.781L12.985 0z"/>
        <path fill="#3A66D5" d="M6.073 13.687l6.912-5.999 6.91 5.999L12.986 0z"/>
        <path fill="#06090B" d="M6.062 13.75L12.985 0 .504 10.953z"/>
        <path fill="#1E273F" d="M.5 10.95l6.242 9.385 6.243-3.129z"/>
        <path fill="#000" d="M.5 10.95v6.256l6.242 3.129z"/>
    </g>
</svg>
