<?xml version="1.0" encoding="UTF-8"?>
<svg width="115px" height="131px" viewBox="0 0 115 131" version="1.1" xmlns="http://www.w3.org/2000/svg" xmlns:xlink="http://www.w3.org/1999/xlink">
    <!-- Generator: Sketch 48.1 (47250) - http://www.bohemiancoding.com/sketch -->
    <title>Power</title>
    <desc>Created with Sketch.</desc>
    <defs></defs>
    <g id="Page-1" stroke="none" stroke-width="1" fill="none" fill-rule="evenodd">
        <g id="Power" fill="#FFFFFF" fill-rule="nonzero">
            <path d="M57.5,76 C56.12,76 55,74.784 55,73.2857143 L55,2.71428571 C55,1.216 56.12,0 57.5,0 C58.88,0 60,1.216 60,2.71428571 L60,73.2857143 C60,74.784 58.88,76 57.5,76 Z" id="Shape"></path>
            <path d="M57.5,131 C25.7928571,131 0,105.302037 0,73.7115485 C0,50.9489371 13.542619,30.3523748 34.5,21.2244148 C35.8909524,20.6297061 37.5009524,21.2571511 38.1033333,22.6320739 C38.7111905,24.0124528 38.0759524,25.6219855 36.6904762,26.2221502 C17.7264286,34.4825993 5.47619048,53.1204422 5.47619048,73.7115485 C5.47619048,102.290302 28.8157143,125.543957 57.5,125.543957 C86.1842857,125.543957 109.52381,102.290302 109.52381,73.7115485 C109.52381,53.1204422 97.2735714,34.4825993 78.3095238,26.2221502 C76.9240476,25.6219855 76.2888095,24.0124528 76.8966667,22.6320739 C77.5045238,21.2571511 79.1145238,20.6297061 80.5,21.2244148 C101.457381,30.3523748 115,50.9489371 115,73.7115485 C115,105.302037 89.2071429,131 57.5,131 Z" id="Shape"></path>
        </g>
    </g>
</svg>