<?xml version="1.0" encoding="UTF-8"?>
<svg width="174px" height="174px" viewBox="0 0 174 174" version="1.1" xmlns="http://www.w3.org/2000/svg" xmlns:xlink="http://www.w3.org/1999/xlink">
    <!-- Generator: Sketch 48.1 (47250) - http://www.bohemiancoding.com/sketch -->
    <title>Question Mark</title>
    <desc>Created with Sketch.</desc>
    <defs></defs>
    <g id="Page-1" stroke="none" stroke-width="1" fill="none" fill-rule="evenodd">
        <g id="Question-Mark" fill="#FFFFFF" fill-rule="nonzero">
            <path d="M87,174 C39.0289565,174 0,134.971043 0,87 C0,39.0289565 39.0289565,0 87,0 C134.971043,0 174,39.0289565 174,87 C174,134.971043 134.971043,174 87,174 Z M87,7.56521739 C43.1973913,7.56521739 7.56521739,43.1973913 7.56521739,87 C7.56521739,130.802609 43.1973913,166.434783 87,166.434783 C130.802609,166.434783 166.434783,130.802609 166.434783,87 C166.434783,43.1973913 130.802609,7.56521739 87,7.56521739 Z" id="Shape"></path>
            <path d="M87.5,121 C85.4102857,121 83.7142857,119.309818 83.7142857,117.227273 L83.7142857,111.515364 C83.7142857,104.460364 86.4702857,97.8354545 91.475,92.8403636 L100.878714,83.4689091 C104.46,79.8999091 106.428571,75.1613636 106.428571,70.121 L106.428571,64.4090909 C106.428571,54.0114545 97.941,45.5454545 87.5,45.5454545 C77.059,45.5454545 68.5714286,54.0114545 68.5714286,64.4090909 L68.5714286,71.9545455 C68.5714286,74.0370909 66.8754286,75.7272727 64.7857143,75.7272727 C62.696,75.7272727 61,74.0370909 61,71.9545455 L61,64.4090909 C61,49.8463636 72.8871429,38 87.5,38 C102.112857,38 114,49.8463636 114,64.4090909 L114,70.121 C114,77.176 111.244,83.8009091 106.239286,88.796 L96.8355714,98.1674545 C93.2542857,101.736455 91.2857143,106.475 91.2857143,111.515364 L91.2857143,117.227273 C91.2857143,119.309818 89.5897143,121 87.5,121 Z" id="Shape"></path>
            <path d="M86.5,144 C82.36,144 79,140.6325 79,136.5 C79,132.3675 82.36,129 86.5,129 C90.64,129 94,132.3675 94,136.5 C94,140.6325 90.64,144 86.5,144 Z M86.5,136.4925 C86.5,136.5 86.5,136.5 86.5,136.4925 L90.25,136.5 L86.5,136.4925 Z" id="Shape"></path>
        </g>
    </g>
</svg>