<svg xmlns="http://www.w3.org/2000/svg" width="38" height="39" viewBox="0 0 38 39">
    <g fill="none" fill-rule="evenodd" transform="translate(0 .334)">
        <rect width="38" height="38" fill="#FFF" fill-rule="nonzero" rx="3.6"/>
        <path fill="#0E1321" d="M27.042 32.656h.864v1.188H26.72v-.849h-1.08v-2.883h-1.403v1.442h-1.403v1.441h1.403v1.443H17.22v-1.443h4.21v-2.883h1.404v-4.326h2.807v-1.442h1.402v1.442h1.404v2.884h4.21v1.442h-5.614v2.544zM16.922 28.5v1.484h1.484v1.485h-2.968V28.5h1.484v-2.85h-1.485v-2.494H12.47v-1.484h1.484v-1.485h-.89v1.188h-2.97v-4.156h2.97v1.385h-1.485v1.386h1.484V19h1.188v1.188h1.187V22.8h1.485v1.425h1.484v-2.85h-1.187V19.99h-1.386v-2.771h-2.77v-1.386h2.77v-2.77h1.386v1.385h1.187v-2.87h2.771v-1.484h-.99V8.906h1.188v1.188h1.187v5.937h-1.187v3.959h-2.771v1.385h2.771v1.188h1.188v2.968h-1.188V22.8h-1.484v2.85h-1.485v2.85h-1.484zm1.682-13.953v1.286h-1.385v2.771h1.385v-1.385h1.386v-1.386h1.187v-2.77h-1.385v1.484h-1.188zm1.109-9.797h2.85v1.425h-1.425V7.6h-2.85v4.275h-2.85V10.45h1.424V6.175h2.85V4.75zM4.156 4.156H14.25V14.25H4.156V4.156zm8.652 8.652v-7.21h-7.21v7.21h7.21zM23.75 4.156h10.094V14.25H23.75V4.156zm8.651 8.652v-7.21h-7.21v7.21h7.21zM7.125 7.125h4.156v4.156H7.125V7.125zm19.594 0h4.156v4.156h-4.156V7.125zM7.125 16.031h2.969v1.188H7.125V16.03zm15.438 0h2.968v1.485h-1.484V19h-1.485v-2.969zm4.156 0h1.187v1.188H26.72V16.03zM4.156 17.22h2.77v1.385h1.386v1.386H6.928v1.385H5.542v-2.771H4.156v-1.385zm24.344 0h1.484v1.484h1.485v4.453h-1.485v-1.484h-2.969v1.484h-1.484v-2.968H28.5v-2.97zM32.656 19h1.188v1.188h-1.188V19zm-11.281 1.188h1.188v1.187h-1.188v-1.188zM4.156 21.375h1.188v1.188H4.156v-1.188zm2.969 0h1.188v1.188H7.125v-1.188zm15.438 0h1.187v1.188h-1.188v-1.188zm10.093 0h1.188v1.188h-1.188v-1.188zM28.5 22.563h1.188v2.968H28.5v-2.968zm2.969.593h1.187v1.188H31.47v-1.188zM4.156 24.344H14.25v10.093H4.156V24.345zm8.652 8.651v-7.209h-7.21v7.21h7.21zm7.38-6.87h1.187v1.188h-1.188v-1.188zm9.5 0h2.968v1.188h-2.968v-1.188zM7.125 27.313h4.156v4.156H7.125v-4.156zm25.531 0h1.188V28.5h-1.188v-1.187zM18.406 28.5h2.969v1.188h-2.969V28.5zm11.282 2.969h1.187v1.187h-1.188V31.47zm2.968 0h1.188v1.187h-1.188V31.47z"/>
    </g>
</svg>
