<svg xmlns="http://www.w3.org/2000/svg" xmlns:xlink="http://www.w3.org/1999/xlink" width="212" height="212" viewBox="0 0 212 212">
    <defs>
        <linearGradient id="b" x1="50%" x2="50%" y1="98.618%" y2="4.861%">
            <stop offset="0%" stop-color="#151A27"/>
            <stop offset="100%" stop-color="#7B7F8A"/>
        </linearGradient>
        <circle id="a" cx="106" cy="105.6" r="105.6"/>
        <path id="e" d="M10.175.757l99.314 14.028c5.232.797 9.473 4.436 9.473 8.122v24.622c0 3.686-4.241 7.32-9.473 8.11L10.877 66.056C5.645 66.72 0 62.35 0 55.439V11.364C0 4.452 4.943.087 10.175.757z"/>
        <filter id="d" width="174%" height="234.5%" x="-37%" y="-47.4%" filterUnits="objectBoundingBox">
            <feOffset dy="13" in="SourceAlpha" result="shadowOffsetOuter1"/>
            <feGaussianBlur in="shadowOffsetOuter1" result="shadowBlurOuter1" stdDeviation="12.5"/>
            <feColorMatrix in="shadowBlurOuter1" values="0 0 0 0 0.226735433 0 0 0 0 0.437054197 0 0 0 0 0.687818878 0 0 0 0.189056839 0"/>
        </filter>
    </defs>
    <g fill="none" fill-rule="evenodd">
        <mask id="c" fill="#fff">
            <use xlink:href="#a"/>
        </mask>
        <use fill="url(#b)" fill-rule="nonzero" opacity=".095" xlink:href="#a"/>
        <g mask="url(#c)">
            <g transform="translate(49.519 168.774)">
                <path fill="#FFF" d="M9.45 0h100.062a9.45 9.45 0 0 1 9.45 9.45v24.956a9.45 9.45 0 0 1-9.45 9.45H9.45A9.45 9.45 0 0 1 0 34.406V9.45A9.45 9.45 0 0 1 9.45 0z"/>
                <path fill="#1B3554" d="M43.702 9.079h62.034a2.299 2.299 0 0 1 0 4.597H43.702a2.299 2.299 0 1 1 0-4.597zM43.702 17.459H88.18a2.299 2.299 0 0 1 0 4.597H43.702a2.299 2.299 0 1 1 0-4.597z" opacity=".3"/>
                <path fill="#1B3554" d="M43.702 30.029H58.16a2.299 2.299 0 1 1 0 4.597H43.702a2.299 2.299 0 1 1 0-4.597z" opacity=".15"/>
                <ellipse cx="21.341" cy="16.314" fill="#BAC2CB" rx="10.815" ry="10.727"/>
                <path fill="#FFF" fill-rule="nonzero" d="M19.607 20.294c.205.205.474.307.744.307s.538-.102.744-.307l5.263-5.237a1.044 1.044 0 0 0 0-1.482 1.056 1.056 0 0 0-1.488 0l-4.52 4.497-2.413-2.402a1.056 1.056 0 0 0-1.488 0 1.044 1.044 0 0 0 0 1.482l3.158 3.142z"/>
            </g>
            <g transform="translate(49.519 117.796)">
                <path fill="#FFF" d="M9.45 0h100.062a9.45 9.45 0 0 1 9.45 9.45v24.956a9.45 9.45 0 0 1-9.45 9.45H9.45A9.45 9.45 0 0 1 0 34.406V9.45A9.45 9.45 0 0 1 9.45 0z"/>
                <path fill="#1B3554" d="M43.702 9.079h62.034a2.299 2.299 0 0 1 0 4.597H43.702a2.299 2.299 0 1 1 0-4.597zM43.702 17.459H88.18a2.299 2.299 0 0 1 0 4.597H43.702a2.299 2.299 0 1 1 0-4.597z" opacity=".3"/>
                <path fill="#1B3554" d="M43.702 30.029H58.16a2.299 2.299 0 1 1 0 4.597H43.702a2.299 2.299 0 1 1 0-4.597z" opacity=".15"/>
                <ellipse cx="21.341" cy="16.314" fill="#BAC2CB" rx="10.815" ry="10.727"/>
                <path fill="#FFF" fill-rule="nonzero" d="M19.607 20.294c.205.205.474.307.744.307s.538-.102.744-.307l5.263-5.237a1.044 1.044 0 0 0 0-1.482 1.056 1.056 0 0 0-1.488 0l-4.52 4.497-2.413-2.402a1.056 1.056 0 0 0-1.488 0 1.044 1.044 0 0 0 0 1.482l3.158 3.142z"/>
            </g>
            <g transform="translate(49.519 44.468)">
                <use fill="#000" filter="url(#d)" xlink:href="#e"/>
                <use fill="#FFF" xlink:href="#e"/>
            </g>
            <path fill="#1B3554" d="M93.232 65.327l62.012 4.29c1.276.093 2.31.96 2.31 1.938s-1.034 1.721-2.31 1.661l-62.012-2.769c-1.275-.054-2.31-1.256-2.31-2.685s1.035-2.52 2.31-2.435zM93.232 74.66l44.454 1.073c1.276.032 2.31.95 2.31 2.051 0 1.101-1.034 1.994-2.31 1.994l-44.454.003c-1.275 0-2.31-1.158-2.31-2.587 0-1.429 1.035-2.563 2.31-2.533z" opacity=".3"/>
            <path fill="#1B3554" d="M93.232 88.661l14.435-.592c1.276-.053 2.31.962 2.31 2.267 0 1.304-1.034 2.43-2.31 2.513l-14.435.933c-1.275.081-2.31-1.011-2.31-2.44 0-1.43 1.035-2.63 2.31-2.68z" opacity=".15"/>
            <path fill="#02D534" d="M72.374 85.897c6.81-.143 12.329-5.9 12.329-12.858s-5.52-12.985-12.329-13.457c-6.809-.465-12.329 5.297-12.329 12.865 0 7.569 5.52 13.591 12.33 13.45z"/>
            <path fill="#FFF" fill-rule="nonzero" d="M70.397 77.607c.234.255.541.383.848.384.307.002.614-.121.849-.371l6-6.254c.468-.478.468-1.274 0-1.782-.469-.51-1.228-.538-1.697-.06l-5.152 5.353-2.751-3.03c-.47-.521-1.229-.543-1.697-.045-.469.5-.469 1.33 0 1.852l3.6 3.953z"/>
        </g>
    </g>
</svg>
