<svg xmlns="http://www.w3.org/2000/svg" xmlns:xlink="http://www.w3.org/1999/xlink" width="247" height="222" viewBox="0 0 247 222">
    <defs>
        <rect id="b" width="190.58" height="190.12" rx="3.175"/>
        <filter id="a" width="129.9%" height="130%" x="-15%" y="-10.3%" filterUnits="objectBoundingBox">
            <feOffset dy="9" in="SourceAlpha" result="shadowOffsetOuter1"/>
            <feGaussianBlur in="shadowOffsetOuter1" result="shadowBlurOuter1" stdDeviation="8"/>
            <feColorMatrix in="shadowBlurOuter1" values="0 0 0 0 0.933035714 0 0 0 0 0.933035714 0 0 0 0 0.933035714 0 0 0 0.487092391 0"/>
        </filter>
    </defs>
    <g fill="none" fill-rule="evenodd">
        <path fill="#5F6268" d="M96.801 127.823h4.842v4.83H96.8v-4.828h-9.678v-4.828h9.678v4.826zm.002-14.483v4.827h-4.84v-4.828h4.838v-4.828h4.842v4.83h-4.84zm-33.881-.001v-4.828h-4.84v-4.828h4.841v4.828h4.84v4.83h-4.84v9.654h-4.841v-9.656h4.84zm19.36-19.314h4.841v4.828h4.84v14.486h-4.84v-4.828h-9.682v4.828h-4.838v-9.656h9.68v-9.656H77.44v-4.83h4.841v4.828zm-72.602.002v4.826h4.84v4.83H9.68v4.828H4.84v-9.658H0v-4.828h9.68v-4.828h9.679v4.83h-9.68zm43.562-43.458h9.68v4.828h-4.84v4.828H48.4v14.488h-9.68v-4.83h4.84V55.397h9.681V50.57zM0 50.57h33.881v33.8H0v-33.8zm29.04 28.97V55.397H4.84V79.54h24.2zm38.723-28.97h33.88v33.8h-33.88v-33.8zM96.8 79.54h.002V55.397h-24.2V79.54H96.8zM9.68 60.225H24.2v14.486H9.68V60.225zm67.76 0h14.522v14.486H77.44V60.225zm-24.198 4.83h4.84v4.828h-4.84v-4.828zm4.84 4.828h4.84v19.314h-4.84v-9.658h-4.84v4.83h-4.841v-9.656h9.68v-4.83zm-19.36 9.656h4.839v4.83h4.84v4.828h-4.84v9.656h4.84v-4.828h4.841v-4.828h4.84v14.486H48.4v4.828h-4.84v-4.828h-4.84v-9.658h-9.68v-4.828h9.68v-9.658zm24.2 9.658h9.68v4.828h-4.84v4.828h-4.84v-9.656zM19.36 94.025h9.68v4.828H24.2v4.83h4.84v4.828h-9.68V94.025zm9.68 4.828h4.839v4.83h-4.84v-4.83zm67.76 0h4.842v4.83H96.8v-4.83zm-62.92 4.83h4.84v9.656h-9.68v-4.828h4.84v-4.828zM0 108.51h4.84v4.83H0v-4.83zm9.68 0h4.84v4.83H9.68v-4.83zm38.72 0h9.682v4.828h-4.84v9.658h-4.841v9.656h-4.84v-9.656h-4.84v-9.658h4.84v4.828h4.84v-9.656zm33.882 4.828h4.841v9.656h-4.84v-9.656zm-9.68 4.828h4.839v4.83h4.841v9.656h14.52v4.828H77.44v9.656h-4.838v-9.656h-4.84v4.83h-4.841v4.826h4.84v4.83H43.562v-4.83h14.52v-9.656h4.84v-14.484h9.682v-4.83zm-72.602 0h33.881v33.8H0v-33.8zm29.04 28.97v-24.14H4.84v24.14h24.2zm24.202-24.14h4.84v4.828h-4.84v-4.828zM9.68 127.823H24.2v14.486H9.68v-14.486zm29.041 4.83h4.84v4.828h4.84v4.83h-9.68v-9.658zm9.68 0h9.68v4.828H48.4v-4.828zm38.722 9.657h4.84v4.828h-4.84v-4.828zm9.678 0h4.842v4.828H96.8v-4.828zm-19.36 4.827h4.841v4.83h-4.841v-4.83zM242.119 126.239h4.841v4.83h-4.841v-4.829h-9.678v-4.828h9.678v4.827zm.001-14.483v4.827h-4.84v-4.829h4.839v-4.828h4.841v4.83h-4.84zm-33.881-.002v-4.828h-4.84v-4.828h4.841v4.828h4.84v4.83h-4.84v9.655h-4.84v-9.657h4.839zm19.36-19.313h4.842v4.828h4.84v14.485h-4.84v-4.828h-9.683v4.828h-4.838v-9.656h9.68v-9.656h-4.842v-4.83h4.841v4.829zm-72.602.001v4.827h4.841v4.83h-4.841v4.827h-4.84V97.27h-4.84V92.44h9.68v-4.828h9.68v4.83h-9.68zm43.562-43.457h9.68v4.828h-4.84v4.828h-9.681v14.487h-9.68v-4.83h4.84V53.814h9.681v-4.828zm-53.242 0H179.2v33.8h-33.882v-33.8zm29.04 28.97V53.813h-24.2v24.142h24.2zm38.723-28.97h33.88v33.8h-33.88v-33.8zm29.039 28.97h.001V53.813h-24.2v24.142h24.199zM154.997 58.64h14.52v14.486h-14.52V58.64zm67.761 0h14.52v14.486h-14.52V58.64zm-24.199 4.83h4.84v4.828h-4.84V63.47zm4.84 4.828h4.84v19.314h-4.84v-9.658h-4.84v4.83h-4.841v-9.657h9.681v-4.83zm-19.36 9.656h4.84v4.83h4.839v4.828h-4.84v9.656h4.84V92.44h4.841v-4.828h4.84v14.485h-9.681v4.828h-4.84v-4.828h-4.84v-9.657h-9.68v-4.828h9.68v-9.658zm24.2 9.658h9.68v4.828h-4.839v4.828h-4.841v-9.656zm-43.561 4.828h9.68v4.828h-4.84v4.83h4.84v4.827h-9.68V92.441zm9.68 4.828h4.84v4.83h-4.84v-4.83zm67.76 0h4.842v4.83h-4.841v-4.83zm-62.92 4.83h4.84v9.655h-9.68v-4.828h4.84v-4.828zm-33.88 4.827h4.84v4.83h-4.84v-4.83zm9.679 0h4.84v4.83h-4.84v-4.83zm38.721 0h9.681v4.828h-4.84v9.658h-4.841v9.656h-4.84v-9.656h-4.84v-9.658h4.84v4.829h4.84v-9.657zm33.881 4.828h4.842v9.657h-4.842v-9.657zm-9.68 4.829h4.84v4.83h4.84v9.655h14.52v4.828h-19.36v9.657h-4.84v-9.657h-4.839v4.83h-4.841v4.827h4.841v4.83h-24.202v-4.83H203.4v-9.657h4.84v-14.484h9.68v-4.83zm-72.602 0H179.2v33.8h-33.882v-33.8zm29.04 28.97v-24.14h-24.2v24.14h24.2zm24.202-24.14h4.84v4.827h-4.84v-4.828zm-43.562 4.826h14.52v14.485h-14.52V126.24zm29.041 4.83h4.84v4.827h4.84v4.83h-9.68v-9.658zm9.68 0h9.68v4.827h-9.68v-4.828zm38.723 9.657h4.84v4.828h-4.84v-4.828zm9.678 0h4.841v4.828h-4.841v-4.828zm-19.36 4.827h4.84v4.83h-4.84v-4.83z" opacity=".055"/>
        <g fill-rule="nonzero" transform="translate(28 7)">
            <use fill="#000" filter="url(#a)" xlink:href="#b"/>
            <use fill="#FFF" xlink:href="#b"/>
        </g>
        <path fill="#3163E1" d="M185.832 138.347h6.543v6.528h-6.543v-6.526h-13.08v-6.525h13.08v6.523zm.002-19.574v6.523h-6.541v-6.525h6.539v-6.526h6.543v6.528h-6.54zm-45.793-.002v-6.526H133.5v-6.525h6.543v6.525h6.542v6.528h-6.542v13.049H133.5V118.77h6.541zm26.167-26.104h6.544v6.525h6.54v19.579h-6.54v-6.526h-13.087v6.526h-6.54V105.72h13.083V92.669h-6.543v-6.528h6.543v6.526zm-98.127.002v6.523h6.544v6.528H68.08v6.525h-6.54V99.192h-6.542v-6.525H68.08V86.14h13.083v6.528H68.08zm58.878-58.735h13.082v6.525H133.5v6.526h-13.085v19.58h-13.082v-6.527h6.541V40.459h13.085v-6.525zm-71.96 0h45.793v45.682H54.999V33.934zm39.25 39.154V40.46H61.54v32.63h32.708zm52.336-39.154h45.79v45.682h-45.79V33.934zm39.247 39.154h.002V40.46h-32.708v32.63h32.706zM68.082 46.985h19.625v19.578H68.081V46.985zm91.583 0h19.626v19.578h-19.626V46.985zm-32.706 6.527h6.541v6.526h-6.541v-6.526zm6.541 6.526h6.541V86.14H133.5V73.088h-6.541v6.528h-6.544v-13.05H133.5v-6.528zm-26.167 13.05h6.541v6.528h6.541v6.525h-6.54v13.051h6.54v-6.525h6.544V86.14h6.541v19.579h-13.085v6.525h-6.54v-6.525h-6.542V92.667H94.248V86.14h13.085V73.088zm32.708 13.053h13.085v6.526h-6.541v6.525h-6.544v-13.05zm-58.875 6.526h13.082v6.525h-6.54v6.528h6.54v6.525H81.166V92.667zm13.082 6.525h6.542v6.528h-6.542v-6.528zm91.584 0h6.543v6.528h-6.543v-6.528zm-85.04 6.528h6.54v13.05H94.249v-6.525h6.544v-6.525zm-45.793 6.525h6.541v6.528H55v-6.528zm13.082 0h6.542v6.528H68.08v-6.528zm52.334 0H133.5v6.526h-6.541v13.053h-6.544v13.05h-6.54v-13.05h-6.542V118.77h6.541v6.525h6.541v-13.05zm45.793 6.526h6.544v13.05h-6.544v-13.05zm-13.082 6.525h6.539v6.528h6.543v13.05h19.624v6.526h-26.167v13.05h-6.54V151.4h-6.54v6.528h-6.544v6.523h6.544v6.528h-32.71v-6.528H133.5V151.4h6.541v-19.577h13.085v-6.528zm-98.127 0h45.793v45.683H54.999v-45.683zm39.25 39.155v-32.627H61.54v32.627h32.708zm32.71-32.627h6.541v6.525h-6.541v-6.525zm-58.878 6.523h19.626v19.579H68.081v-19.579zm39.252 6.528h6.541v6.525h6.541v6.528h-13.082v-13.053zm13.082 0h13.083v6.525h-13.083v-6.525zm52.337 13.053h6.54v6.525h-6.54v-6.525zm13.08 0h6.543v6.525h-6.543v-6.525zm-26.167 6.523h6.543v6.528h-6.543v-6.528z"/>
    </g>
</svg>
